<?xml version="1.0" standalone="no"?>
<!DOCTYPE svg PUBLIC "-//W3C//DTD SVG 20010904//EN"
 "http://www.w3.org/TR/2001/REC-SVG-20010904/DTD/svg10.dtd">
<svg version="1.0" xmlns="http://www.w3.org/2000/svg"
 width="512.000000pt" height="512.000000pt" viewBox="0 0 512.000000 512.000000"
 preserveAspectRatio="xMidYMid meet">

<g transform="translate(0.000000,512.000000) scale(0.100000,-0.100000)"
fill="#000000" stroke="none">
<path d="M405 4326 c-60 -28 -97 -66 -124 -126 -20 -45 -21 -56 -21 -1737 l0
-1693 2300 0 2300 0 0 1693 c0 1681 -1 1692 -21 1737 -27 60 -64 98 -124 126
l-50 24 -2105 0 -2105 0 -50 -24z m4233 -192 c22 -15 22 -18 22 -255 l0 -239
-2100 0 -2100 0 0 239 c0 237 0 240 22 255 20 14 234 16 2078 16 1844 0 2058
-2 2078 -16z m22 -1934 l0 -1230 -2100 0 -2100 0 0 1230 0 1230 2100 0 2100 0
0 -1230z"/>
<path d="M670 3020 l0 -100 355 0 355 0 0 100 0 100 -355 0 -355 0 0 -100z"/>
<path d="M1180 2610 l0 -100 895 0 895 0 0 100 0 100 -895 0 -895 0 0 -100z"/>
<path d="M1690 2200 l0 -100 795 0 795 0 0 100 0 100 -795 0 -795 0 0 -100z"/>
<path d="M1690 1790 l0 -100 510 0 510 0 0 100 0 100 -510 0 -510 0 0 -100z"/>
<path d="M2920 1790 l0 -100 765 0 765 0 0 100 0 100 -765 0 -765 0 0 -100z"/>
<path d="M1180 1380 l0 -100 945 0 945 0 0 100 0 100 -945 0 -945 0 0 -100z"/>
</g>
</svg>
