<?xml version="1.0" standalone="no"?>
<!DOCTYPE svg PUBLIC "-//W3C//DTD SVG 20010904//EN"
 "http://www.w3.org/TR/2001/REC-SVG-20010904/DTD/svg10.dtd">
<svg version="1.0" xmlns="http://www.w3.org/2000/svg"
 width="840.000000pt" height="859.000000pt" viewBox="0 0 840.000000 859.000000"
 preserveAspectRatio="xMidYMid meet">

<g transform="translate(0.000000,859.000000) scale(0.100000,-0.100000)"
fill="#000000" stroke="none">
<path d="M1675 8560 l-330 -6 -55 -28 c-81 -42 -199 -165 -241 -251 l-34 -70
-3 -3907 -2 -3908 21 -43 c64 -125 156 -220 273 -279 l60 -30 2736 -2 c2781
-1 2876 0 3015 35 41 10 64 27 141 103 58 59 95 104 103 127 33 102 34 203 38
3485 l4 3262 -24 53 c-14 30 -55 90 -92 134 -77 92 -1160 1174 -1247 1246 -72
60 -106 67 -353 79 -204 10 -3463 10 -4010 0z m3948 -997 l7 -658 57 -57 57
-58 511 0 c280 0 574 -3 653 -7 l142 -6 -2 -3162 c-3 -2972 -4 -3162 -20
-3187 -14 -21 -29 -28 -75 -35 -74 -10 -5420 -11 -5493 0 -30 4 -62 12 -70 17
-8 5 -18 35 -23 72 -12 90 -20 6418 -9 7103 5 314 13 578 16 587 4 9 15 20 24
24 38 17 354 20 2243 22 l1976 2 6 -657z m814 35 c238 -238 433 -436 433 -440
0 -5 -198 -8 -440 -8 l-440 0 0 440 c0 242 3 440 7 440 4 0 202 -195 440 -432z"/>
<path d="M2313 5678 c-51 -54 -63 -77 -63 -123 0 -46 28 -100 78 -148 l39 -38
1054 3 1054 3 33 24 c67 51 89 147 53 228 -34 73 -45 76 -295 84 -122 4 -601
8 -1066 8 l-846 1 -41 -42z"/>
<path d="M2318 4623 c-92 -98 -91 -176 4 -279 l41 -44 1847 0 1848 0 51 55
c53 59 68 101 57 157 -8 38 -41 90 -70 109 -38 24 -304 28 -2037 28 l-1715 1
-26 -27z"/>
<path d="M2313 3548 c-38 -39 -63 -95 -63 -140 0 -48 36 -114 78 -140 35 -22
48 -23 367 -29 181 -4 1012 -8 1845 -8 l1516 -1 41 43 c79 81 92 147 47 225
-50 84 133 77 -1949 80 l-1850 3 -32 -33z"/>
<path d="M2308 2472 c-72 -79 -75 -169 -9 -243 35 -40 43 -44 102 -50 35 -5
872 -11 1859 -15 l1796 -7 46 52 c54 59 73 107 65 163 -6 45 -47 104 -85 121
-21 9 -477 13 -1883 15 l-1856 3 -35 -39z"/>
</g>
</svg>
