<svg xmlns="http://www.w3.org/2000/svg" width="702.64" height="283.91"><rect id="backgroundrect" width="100%" height="100%" x="0" y="0" fill="none" stroke="none"/><g class="currentLayer" style=""><title>Layer 1</title><path d="M133.49,209.02c-38.61,0-70.02-31.41-70.02-70.02h23.69c0,25.55,20.78,46.34,46.33,46.34s46.33-20.79,46.33-46.34h23.69c0,38.61-31.41,70.02-70.02,70.02" id="svg_1" class="" fill-opacity="1" fill="#ffc800"/><path d="M101.61,131.64c0,7.31,5.92,13.23,13.23,13.23s13.23-5.92,13.23-13.23-5.92-13.23-13.23-13.23-13.23,5.92-13.23,13.23" id="svg_2" class="" fill-opacity="1" fill="#ffc800"/><path d="M138.9,131.64c0,7.31,5.92,13.23,13.23,13.23s13.23-5.92,13.23-13.23-5.92-13.23-13.23-13.23-13.23,5.92-13.23,13.23" id="svg_3" class="" fill-opacity="1" fill="#ffc800"/><polygon points="203.50999450683594,125.62134104967117 179.8300018310547,125.62134104967117 179.8300018310547,68.92134410142899 138.89999389648438,68.92134410142899 138.89999389648438,45.231341660022736 203.50999450683594,45.231341660022736 203.50999450683594,125.62134104967117 " id="svg_4" class="" fill="#ffc800" fill-opacity="1"/><polygon points="507.14 111.06 492.01 153.87 477 111.06 462.15 111.06 483.53 166.65 500.6 166.65 521.99 111.06 507.14 111.06" id="svg_5" class="" fill-opacity="1" fill="#0259d5"/><path d="M639.17,150.54c0-10.19-9.53-14.57-19.52-16.35-9.71-1.99-14.04-3.64-14.04-8.16,0-3.94,3.74-6.68,9.09-6.68s9.49,3.02,10.07,7.56h12.68c-.31-11.28-11.4-16.99-22.86-16.99s-22.64,5.42-22.64,16.8c0,9.82,10.3,14.93,19.39,16.23,9.68,2.06,13.72,3.63,13.72,8.05,0,4.07-4.16,7.03-9.89,7.03s-10.27-3.07-10.87-7.68h-13.48c.32,11.73,12.61,17.33,24.47,17.33s23.9-5.48,23.9-17.14" id="svg_6" class="" fill-opacity="1" fill="#0259d5"/><path d="M363.58,109.91c-17.37,0-30.09,11.87-30.09,28.94s13.08,28.83,30.09,28.83c12.94,0,23.05-7.34,27.26-16.2h-15.21c-3.06,3.22-7.39,5.05-11.93,5.05-7.5,0-14.24-4.68-16.44-13.6h45.95c.24-1.04,.35-2.31,.35-3.97-.22-16.5-11.88-29.06-29.97-29.06m-15.84,22.68c.15-.2,3.35-11.53,15.95-11.53s16.36,11.34,16.52,11.53h-32.47Z" id="svg_7" class="" fill-opacity="1" fill="#0259d5"/><path d="M431.29,109.91c-17.37,0-30.09,11.87-30.09,28.94s13.08,28.83,30.09,28.83c12.94,0,23.06-7.34,27.26-16.2h-15.22c-3.05,3.22-7.39,5.05-11.93,5.05-7.5,0-14.24-4.68-16.44-13.6h45.95c.24-1.04,.35-2.31,.35-3.97-.22-16.5-11.88-29.06-29.97-29.06m-15.84,22.68c.15-.2,3.35-11.53,15.95-11.53s16.36,11.34,16.52,11.53h-32.47Z" id="svg_8" class="" fill-opacity="1" fill="#0259d5"/><path d="M294.75,153.78c-8.65,0-15.71-6.9-15.97-15.48h-13.94c.27,16.27,13.58,29.42,29.91,29.42s29.91-13.42,29.91-29.91v-50.71h-13.93v50.71c0,8.81-7.17,15.98-15.98,15.98" id="svg_9" class="" fill-opacity="1" fill="#0259d5"/><path d="M553.3,109.91c-17.37,0-30.09,11.87-30.09,28.94s13.08,28.83,30.09,28.83c12.94,0,23.05-7.34,27.26-16.2h-15.22c-3.05,3.22-7.39,5.05-11.93,5.05-7.5,0-14.24-4.68-16.44-13.6h45.95c.24-1.04,.35-2.31,.35-3.97-.22-16.5-11.88-29.06-29.97-29.06m-15.84,22.68c.15-.2,3.35-11.53,15.95-11.53s16.36,11.34,16.52,11.53h-32.47Z" id="svg_10" class="" fill-opacity="1" fill="#0259d5"/><g id="svg_11" class="" fill-opacity="1" fill="#0259d5"><path d="M279.2,228.43v-12.44l-9.95-16.76h4.08l7.75,13.43,7.63-13.43h4.1l-9.89,16.78v12.42h-3.71Z" id="svg_12" fill="#0259d5"/><path d="M302.21,228.84c-1.92,0-3.6-.41-5.04-1.24-1.43-.83-2.55-2.04-3.34-3.64-.79-1.6-1.19-3.56-1.19-5.88,0-2.18,.37-4.09,1.11-5.73,.74-1.64,1.82-2.92,3.25-3.83,1.43-.91,3.17-1.36,5.23-1.36,1.92,0,3.59,.42,5.01,1.26s2.51,2.08,3.3,3.7c.79,1.63,1.18,3.61,1.18,5.96,0,2.13-.36,4-1.09,5.61-.73,1.62-1.79,2.88-3.2,3.79-1.41,.91-3.15,1.36-5.22,1.36Zm.02-2.95c1.24,0,2.29-.32,3.15-.95s1.52-1.54,1.97-2.73c.45-1.18,.68-2.59,.68-4.22,0-1.49-.2-2.84-.6-4.03-.4-1.19-1.02-2.14-1.87-2.84-.85-.7-1.96-1.05-3.33-1.05-1.27,0-2.33,.31-3.21,.94s-1.54,1.53-1.99,2.71c-.45,1.18-.68,2.6-.68,4.26,0,1.47,.2,2.8,.6,4,.4,1.2,1.03,2.15,1.9,2.85,.87,.7,2,1.05,3.38,1.05Z" id="svg_13" fill="#0259d5"/><path d="M324.32,228.84c-1.09-.01-2.12-.17-3.08-.47-.96-.3-1.81-.75-2.55-1.34-.74-.59-1.32-1.33-1.75-2.21-.42-.88-.64-1.91-.64-3.08v-14.17h3.73v13.79c0,1.36,.42,2.46,1.26,3.31,.84,.85,2.11,1.27,3.81,1.27,1.53,0,2.77-.4,3.7-1.2,.94-.8,1.4-2,1.4-3.58v-13.59h3.71v20.88h-2.97l-.38-4c-.26,1.05-.69,1.9-1.3,2.54-.61,.65-1.35,1.12-2.2,1.42-.85,.3-1.77,.45-2.76,.43Z" id="svg_14" fill="#0259d5"/><path d="M340.33,228.43v-20.88h3.55v4.02c.35-1,.84-1.82,1.47-2.47,.63-.65,1.36-1.14,2.17-1.46,.81-.32,1.66-.48,2.53-.48,.31,0,.61,.02,.91,.06,.3,.04,.52,.11,.69,.2v3.61c-.2-.09-.46-.16-.78-.19-.32-.03-.58-.05-.8-.05-.83-.05-1.62,0-2.34,.15-.73,.16-1.37,.42-1.92,.8-.55,.38-.99,.87-1.3,1.48-.32,.61-.47,1.36-.47,2.23v12.98h-3.71Z" id="svg_15" fill="#0259d5"/><path d="M376.58,228.84c-1.43,0-2.78-.17-4.06-.51-1.28-.34-2.44-.86-3.48-1.54s-1.9-1.54-2.58-2.55c-.68-1.02-1.11-2.2-1.28-3.54h3.92c.24,1.1,.72,2.03,1.44,2.79,.72,.75,1.62,1.32,2.68,1.7,1.07,.38,2.24,.57,3.52,.57s2.38-.2,3.42-.59c1.04-.39,1.88-.96,2.51-1.71,.63-.75,.95-1.64,.95-2.69,0-1.16-.38-2.09-1.13-2.8-.75-.71-1.92-1.27-3.49-1.71l-6.02-1.55c-1.36-.34-2.56-.81-3.6-1.42-1.04-.61-1.86-1.42-2.45-2.42-.59-1-.89-2.25-.89-3.75,0-1.66,.46-3.1,1.37-4.33,.92-1.23,2.16-2.19,3.72-2.87,1.57-.68,3.34-1.02,5.32-1.02,2.29,0,4.22,.4,5.78,1.19,1.57,.79,2.76,1.84,3.56,3.13s1.21,2.67,1.21,4.14h-3.84c-.12-1.33-.51-2.39-1.17-3.16-.66-.77-1.48-1.33-2.46-1.68-.98-.34-2.05-.51-3.21-.51-2.09,0-3.66,.47-4.73,1.42-1.07,.95-1.6,2.08-1.6,3.38,0,1.2,.38,2.14,1.15,2.83,.77,.69,1.9,1.22,3.39,1.59l5.85,1.51c1.74,.4,3.12,.99,4.15,1.76,1.03,.77,1.77,1.66,2.22,2.67,.45,1.02,.68,2.12,.68,3.3,0,1.62-.45,3.06-1.35,4.32-.9,1.27-2.16,2.26-3.79,2.98-1.62,.72-3.53,1.08-5.72,1.08Z" id="svg_16" fill="#0259d5"/><path d="M401.8,228.84c-1.94,0-3.65-.42-5.13-1.27s-2.64-2.07-3.47-3.65c-.83-1.59-1.25-3.49-1.25-5.71s.38-4.12,1.13-5.77c.75-1.66,1.85-2.95,3.28-3.88,1.43-.93,3.16-1.39,5.18-1.39s3.63,.42,4.99,1.27,2.39,2.04,3.1,3.58c.71,1.54,1.06,3.37,1.06,5.48v1.37h-14.96c0,1.32,.22,2.51,.66,3.58,.44,1.07,1.1,1.92,1.99,2.55,.89,.63,2.01,.95,3.37,.95s2.48-.31,3.44-.93c.96-.62,1.58-1.51,1.85-2.68h3.51c-.24,1.41-.8,2.6-1.69,3.57s-1.94,1.7-3.17,2.19c-1.23,.49-2.53,.74-3.89,.74Zm-6.06-12.5h11.35c0-1.2-.2-2.28-.61-3.24-.4-.96-1.02-1.72-1.85-2.28-.83-.56-1.87-.84-3.12-.84s-2.39,.31-3.25,.94-1.5,1.43-1.92,2.4c-.42,.98-.62,1.98-.61,3.02Z" id="svg_17" fill="#0259d5"/><path d="M415.85,228.43v-20.88h3.55v4.02c.35-1,.84-1.82,1.47-2.47,.63-.65,1.36-1.14,2.17-1.46,.81-.32,1.66-.48,2.53-.48,.31,0,.61,.02,.91,.06,.3,.04,.52,.11,.69,.2v3.61c-.2-.09-.46-.16-.78-.19-.32-.03-.58-.05-.8-.05-.83-.05-1.62,0-2.34,.15-.73,.16-1.37,.42-1.92,.8s-.99,.87-1.3,1.48c-.32,.61-.47,1.36-.47,2.23v12.98h-3.71Z" id="svg_18" fill="#0259d5"/><path d="M437.57,228.43l-7.55-20.88h3.51l5.55,16.19h.34l5.57-16.19h3.49l-7.51,20.88h-3.41Z" id="svg_19" fill="#0259d5"/><path d="M452.53,203.14v-3.88h3.82v3.88h-3.82Zm.1,25.3v-20.88h3.61v20.88h-3.61Z" id="svg_20" fill="#0259d5"/><path d="M470.92,228.84c-1.88,0-3.55-.41-5-1.23-1.45-.82-2.58-2.03-3.39-3.63-.81-1.6-1.22-3.57-1.22-5.89,0-2.18,.37-4.09,1.12-5.72,.75-1.63,1.84-2.91,3.27-3.83s3.17-1.37,5.22-1.37c1.49,0,2.84,.29,4.03,.86,1.19,.57,2.17,1.38,2.94,2.43s1.24,2.29,1.41,3.71h-3.31c-.12-.73-.4-1.39-.84-2-.44-.61-1.01-1.09-1.72-1.45-.71-.36-1.54-.54-2.49-.54-1.79,0-3.25,.65-4.37,1.94-1.12,1.29-1.69,3.27-1.69,5.93,0,2.41,.51,4.34,1.54,5.78,1.03,1.45,2.55,2.17,4.55,2.17,.96,0,1.79-.19,2.5-.56,.71-.37,1.29-.86,1.72-1.47s.71-1.27,.83-1.97h3.25c-.17,1.4-.65,2.61-1.42,3.63-.77,1.02-1.76,1.81-2.95,2.37-1.19,.56-2.52,.84-3.99,.84Z" id="svg_21" fill="#0259d5"/><path d="M493.17,228.84c-1.94,0-3.65-.42-5.13-1.27s-2.64-2.07-3.47-3.65c-.83-1.59-1.25-3.49-1.25-5.71s.38-4.12,1.13-5.77c.75-1.66,1.85-2.95,3.28-3.88,1.43-.93,3.16-1.39,5.18-1.39s3.63,.42,4.99,1.27,2.39,2.04,3.1,3.58c.71,1.54,1.06,3.37,1.06,5.48v1.37h-14.96c0,1.32,.22,2.51,.66,3.58,.44,1.07,1.1,1.92,1.99,2.55,.89,.63,2.01,.95,3.37,.95s2.48-.31,3.44-.93c.96-.62,1.58-1.51,1.85-2.68h3.51c-.24,1.41-.8,2.6-1.69,3.57s-1.94,1.7-3.17,2.19c-1.23,.49-2.53,.74-3.89,.74Zm-6.06-12.5h11.35c0-1.2-.2-2.28-.61-3.24-.4-.96-1.02-1.72-1.85-2.28-.83-.56-1.87-.84-3.12-.84s-2.39,.31-3.25,.94-1.5,1.43-1.92,2.4c-.42,.98-.62,1.98-.61,3.02Z" id="svg_22" fill="#0259d5"/><path d="M517.56,228.43v-29.19h18.41l-.02,3.29h-14.64v9.53h13.18v3.27h-13.2v9.73l15.06,.04v3.33h-18.79Z" id="svg_23" fill="#0259d5"/><path d="M539.62,228.43l8.04-10.84-7.39-10.03h4.06l5.43,7.33,5.43-7.33h4.08l-7.43,10.03,8.04,10.84h-4.06l-6.08-8.18-6.04,8.18h-4.08Z" id="svg_24" fill="#0259d5"/><path d="M564.23,234.94v-27.38h3.71l.04,3.63c.24-.43,.56-.88,.94-1.35,.38-.47,.85-.91,1.41-1.31,.56-.4,1.21-.73,1.96-.99s1.6-.38,2.55-.38c1.67,0,3.14,.38,4.41,1.14,1.27,.76,2.26,1.92,2.98,3.48,.71,1.56,1.07,3.54,1.07,5.94s-.35,4.42-1.04,6.07-1.69,2.9-3,3.76c-1.31,.86-2.88,1.29-4.72,1.29-.93,0-1.75-.13-2.47-.39-.72-.26-1.35-.61-1.88-1.03-.53-.42-.98-.88-1.33-1.36-.36-.49-.65-.95-.88-1.39v10.28h-3.75Zm9.61-9c1.72,0,3.13-.66,4.22-1.97,1.09-1.31,1.63-3.35,1.63-6.13,0-2.38-.5-4.27-1.49-5.67-1-1.4-2.45-2.1-4.36-2.1s-3.41,.72-4.4,2.15c-1,1.43-1.49,3.31-1.49,5.62,0,1.49,.22,2.85,.67,4.08s1.1,2.2,1.98,2.93,1.96,1.09,3.25,1.09Z" id="svg_25" fill="#0259d5"/><path d="M597.1,228.84c-1.94,0-3.65-.42-5.13-1.27s-2.64-2.07-3.47-3.65c-.83-1.59-1.25-3.49-1.25-5.71s.38-4.12,1.13-5.77c.75-1.66,1.85-2.95,3.28-3.88,1.43-.93,3.16-1.39,5.18-1.39s3.63,.42,4.99,1.27,2.39,2.04,3.1,3.58c.71,1.54,1.06,3.37,1.06,5.48v1.37h-14.96c0,1.32,.22,2.51,.66,3.58,.44,1.07,1.1,1.92,1.99,2.55,.89,.63,2.01,.95,3.37,.95s2.48-.31,3.44-.93c.96-.62,1.58-1.51,1.85-2.68h3.51c-.24,1.41-.8,2.6-1.69,3.57s-1.94,1.7-3.17,2.19c-1.23,.49-2.53,.74-3.89,.74Zm-6.06-12.5h11.35c0-1.2-.2-2.28-.61-3.24-.4-.96-1.02-1.72-1.85-2.28-.83-.56-1.87-.84-3.12-.84s-2.39,.31-3.25,.94-1.5,1.43-1.92,2.4c-.42,.98-.62,1.98-.61,3.02Z" id="svg_26" fill="#0259d5"/><path d="M611.15,228.43v-20.88h3.55v4.02c.35-1,.84-1.82,1.47-2.47,.63-.65,1.36-1.14,2.17-1.46,.81-.32,1.66-.48,2.53-.48,.31,0,.61,.02,.91,.06,.3,.04,.52,.11,.69,.2v3.61c-.2-.09-.46-.16-.78-.19-.32-.03-.58-.05-.8-.05-.83-.05-1.62,0-2.34,.15-.73,.16-1.37,.42-1.92,.8s-.99,.87-1.3,1.48c-.32,.61-.47,1.36-.47,2.23v12.98h-3.71Z" id="svg_27" fill="#0259d5"/><path d="M634.02,228.54c-1.44,0-2.56-.19-3.35-.58s-1.35-.97-1.67-1.74c-.32-.77-.47-1.71-.47-2.83v-13.1h-3.39v-2.73h3.49l.91-6.08h2.75v6.06h4.7v2.75h-4.7v12.98c0,.74,.08,1.28,.23,1.62,.15,.34,.41,.56,.78,.66s.87,.14,1.53,.14h2.28v2.5c-.26,.09-.64,.17-1.16,.24s-1.16,.1-1.93,.1Z" id="svg_28" fill="#0259d5"/></g></g></svg>